<svg width="32" height="32" viewBox="0 0 32 32" fill="none" xmlns="http://www.w3.org/2000/svg">
  <circle cx="16" cy="16" r="16" fill="white"/>
  <path fill-rule="evenodd" clip-rule="evenodd" d="M16 32C7.16344 32 0 24.8366 0 16C0 7.16344 7.16344 0 16 0C24.8366 0 32 7.16344 32 16C32 24.8366 24.8366 32 16 32ZM16.5274 24.9017C21.773 24.8995 26.0393 20.6322 26.0414 15.3877C26.0424 12.8456 25.0537 10.4552 23.2575 8.65694C21.4612 6.85858 19.0724 5.86777 16.5273 5.86667C11.2832 5.86667 7.01519 10.1345 7.0131 15.3802C7.01239 17.057 7.45049 18.6937 8.28308 20.1366L6.93333 25.0667L11.9769 23.7436C13.3665 24.5016 14.9311 24.9011 16.5234 24.9017H16.5274Z" fill="#25d366"/>
  <path fill-rule="evenodd" clip-rule="evenodd" d="M12.2122 22.0203L9.2193 22.8054L10.0182 19.8873L9.83013 19.5881C9.03856 18.3291 8.62048 16.8739 8.62109 15.3797C8.62282 11.0198 12.1703 7.47266 16.5321 7.47266C18.6443 7.47339 20.6298 8.29696 22.1228 9.79169C23.6157 11.2864 24.4375 13.2732 24.4367 15.3862C24.4349 19.7465 20.8875 23.2939 16.529 23.2939H16.5258C15.1068 23.2934 13.7151 22.9122 12.501 22.1917L12.2122 22.0203ZM21.3222 17.6491C21.2628 17.55 21.1043 17.4905 20.8666 17.3714C20.6288 17.2524 19.4601 16.6774 19.2421 16.598C19.0243 16.5187 18.8657 16.4791 18.7073 16.717C18.5488 16.9549 18.0932 17.4905 17.9546 17.6491C17.8159 17.8077 17.6772 17.8276 17.4396 17.7086C17.2018 17.5896 16.4358 17.3386 15.5278 16.5287C14.8211 15.8983 14.344 15.1199 14.2053 14.8819C14.0667 14.6439 14.1905 14.5153 14.3095 14.3967C14.4165 14.2902 14.5473 14.119 14.6661 13.9802C14.785 13.8414 14.8246 13.7422 14.9039 13.5837C14.9831 13.4249 14.9435 13.2862 14.884 13.1672C14.8246 13.0482 14.3492 11.878 14.1511 11.402C13.9581 10.9385 13.7621 11.0013 13.6162 10.994C13.4777 10.987 13.3191 10.9855 13.1606 10.9855C13.0021 10.9855 12.7446 11.045 12.5267 11.283C12.3088 11.521 11.6947 12.0962 11.6947 13.2662C11.6947 14.4364 12.5465 15.5668 12.6653 15.7254C12.7842 15.8841 14.3416 18.2852 16.7264 19.315C17.2936 19.5599 17.7363 19.7062 18.0816 19.8157C18.6511 19.9967 19.1694 19.9712 19.5789 19.9099C20.0357 19.8417 20.9854 19.3349 21.1836 18.7796C21.3816 18.2242 21.3816 17.7482 21.3222 17.6491Z" fill="#25d366"/>
</svg>