<svg width="32" height="32" viewBox="0 0 32 32" fill="none" xmlns="http://www.w3.org/2000/svg">
  <g clip-path="url(#clip0)">
    <circle cx="16" cy="16" r="16" fill="white"/>
    <path fill-rule="evenodd" clip-rule="evenodd" d="M0 16C0 7.16344 7.16345 0 16 0C24.8366 0 32 7.16344 32 16C32 24.8366 24.8366 32 16 32C7.16345 32 0 24.8366 0 16ZM7.33334 10C7.33334 9.63181 7.63181 9.33333 8 9.33333H24C24.3682 9.33333 24.6667 9.63181 24.6667 10V10.6635C24.6667 10.6655 24.6667 10.6675 24.6667 10.6695V21.3333C24.6667 21.687 24.5262 22.0261 24.2761 22.2761C24.0261 22.5262 23.687 22.6667 23.3333 22.6667H8.66667C8.31305 22.6667 7.97391 22.5262 7.72386 22.2761C7.47381 22.0261 7.33334 21.687 7.33334 21.3333V10.6667C7.33334 10.6666 7.33334 10.6664 7.33334 10.6663V10ZM8.66667 12.1822V21.3333H23.3333V12.1822L16.4505 18.4914C16.1956 18.7251 15.8044 18.7251 15.5495 18.4914L8.66667 12.1822ZM23.0134 10.6667L16 17.0956L8.9866 10.6667H23.0134Z" fill="#2998CA"/>
  </g>
  <defs>
    <clipPath id="clip0">
      <rect width="32" height="32" fill="white"/>
    </clipPath>
  </defs>
</svg>