<svg width="19" height="16" viewBox="0 0 19 16" fill="none" xmlns="http://www.w3.org/2000/svg">
  <path d="M10.4696 15.2803C10.329 15.1397 10.25 14.9489 10.25 14.75C10.25 14.5511 10.329 14.3604 10.4696 14.2197L15.9394 8.75002H1.25C1.05109 8.75002 0.860322 8.671 0.71967 8.53035C0.579018 8.3897 0.5 8.19893 0.5 8.00002C0.5 7.80111 0.579018 7.61034 0.71967 7.46969C0.860322 7.32904 1.05109 7.25002 1.25 7.25002H15.9394L10.4696 1.78034C10.4 1.71069 10.3447 1.628 10.3071 1.53701C10.2694 1.44601 10.25 1.34848 10.25 1.24998C10.25 1.15149 10.2694 1.05396 10.3071 0.962968C10.3448 0.871974 10.4 0.789295 10.4697 0.719652C10.5393 0.65001 10.622 0.594768 10.713 0.55708C10.804 0.519392 10.9015 0.499996 11 0.5C11.0985 0.500004 11.1961 0.519408 11.287 0.557104C11.378 0.5948 11.4607 0.65005 11.5304 0.719698L18.2804 7.4697C18.2828 7.47213 18.2848 7.47483 18.2872 7.4773C18.302 7.4925 18.3164 7.5081 18.3299 7.52449C18.3374 7.53365 18.344 7.54335 18.351 7.55278C18.3586 7.56295 18.3665 7.57292 18.3736 7.5835C18.3809 7.59439 18.3873 7.60575 18.3939 7.61696C18.3998 7.62676 18.4059 7.63633 18.4114 7.64644C18.4174 7.6577 18.4225 7.66933 18.4279 7.68082C18.433 7.69153 18.4383 7.70206 18.4429 7.713C18.4475 7.72408 18.4512 7.73543 18.4552 7.74669C18.4594 7.7585 18.464 7.77022 18.4676 7.7823C18.471 7.79352 18.4735 7.80492 18.4764 7.81627C18.4795 7.82863 18.483 7.8409 18.4855 7.85349C18.4881 7.86658 18.4896 7.87977 18.4915 7.8929C18.4931 7.90398 18.4952 7.91483 18.4963 7.926C18.4987 7.95062 18.5 7.9753 18.5 8.00002C18.5 8.02474 18.4987 8.04941 18.4963 8.07404C18.4952 8.08521 18.4931 8.09606 18.4915 8.10713C18.4896 8.12027 18.4881 8.13345 18.4855 8.14655C18.483 8.15913 18.4795 8.1714 18.4764 8.18376C18.4735 8.19512 18.471 8.20651 18.4676 8.21773C18.464 8.22981 18.4594 8.24153 18.4552 8.25334C18.4512 8.26461 18.4475 8.27596 18.4429 8.28704C18.4383 8.29798 18.433 8.3085 18.4279 8.31922C18.4225 8.33071 18.4174 8.34233 18.4114 8.35359C18.4059 8.36371 18.3998 8.37328 18.3939 8.38307C18.3873 8.39429 18.3809 8.40564 18.3736 8.41654C18.3665 8.42711 18.3586 8.43709 18.351 8.44725C18.344 8.45668 18.3374 8.46639 18.3299 8.47554C18.3162 8.49225 18.3016 8.50814 18.2865 8.52361C18.2843 8.52576 18.2825 8.52819 18.2804 8.53034L11.5304 15.2803C11.4607 15.35 11.378 15.4052 11.287 15.4429C11.196 15.4806 11.0985 15.5 11 15.5C10.9015 15.5 10.804 15.4806 10.713 15.4429C10.622 15.4052 10.5393 15.35 10.4696 15.2803Z" fill="#e4babb"/>
</svg>
