<svg width="66" height="78" viewBox="0 0 66 78" fill="none" xmlns="http://www.w3.org/2000/svg">
  <path fill-rule="evenodd" clip-rule="evenodd" d="M2.40825 2.53325C3.51002 1.43147 5.00435 0.8125 6.5625 0.8125H41.8154C42.5944 0.8125 43.3416 1.12199 43.8925 1.67287L64.455 22.2354C65.0059 22.7863 65.3154 23.5334 65.3154 24.3125V71.3125C65.3154 72.084 65.1634 72.848 64.8682 73.5608C64.5729 74.2735 64.1402 74.9212 63.5946 75.4668C63.0491 76.0123 62.4014 76.4451 61.6886 76.7403C60.9758 77.0356 60.2119 77.1875 59.4404 77.1875H6.5625C5.00436 77.1875 3.51003 76.5686 2.40825 75.4668C1.30647 74.365 0.6875 72.8707 0.6875 71.3125V6.6875C0.6875 5.12935 1.30647 3.63503 2.40825 2.53325ZM40.5986 6.6875L6.5625 6.6875L6.5625 71.3125L59.4404 71.3125V25.5293L40.5986 6.6875Z" fill="#8D8D8D"/>
  <path fill-rule="evenodd" clip-rule="evenodd" d="M41.8125 0.8125C43.4348 0.8125 44.75 2.12766 44.75 3.75V21.375H62.3779C64.0003 21.375 65.3154 22.6902 65.3154 24.3125C65.3154 25.9348 64.0003 27.25 62.3779 27.25H41.8125C40.1902 27.25 38.875 25.9348 38.875 24.3125V3.75C38.875 2.12766 40.1902 0.8125 41.8125 0.8125Z" fill="#8D8D8D"/>
  <path fill-rule="evenodd" clip-rule="evenodd" d="M36.7237 51.5362C37.8708 50.389 39.7307 50.389 40.8779 51.5362L46.7529 57.4112C47.9001 58.5583 47.9001 60.4182 46.7529 61.5654C45.6057 62.7126 43.7458 62.7126 42.5987 61.5654L36.7237 55.6904C35.5765 54.5432 35.5765 52.6833 36.7237 51.5362Z" fill="#8D8D8D"/>
  <path fill-rule="evenodd" clip-rule="evenodd" d="M31.5312 39C27.4754 39 24.1875 42.2879 24.1875 46.3438C24.1875 50.3996 27.4754 53.6875 31.5312 53.6875C35.5871 53.6875 38.875 50.3996 38.875 46.3438C38.875 42.2879 35.5871 39 31.5312 39ZM18.3125 46.3438C18.3125 39.0432 24.2307 33.125 31.5312 33.125C38.8318 33.125 44.75 39.0432 44.75 46.3438C44.75 53.6443 38.8318 59.5625 31.5312 59.5625C24.2307 59.5625 18.3125 53.6443 18.3125 46.3438Z" fill="#8D8D8D"/>
</svg>
