<svg width="92" height="92" viewBox="0 0 92 92" fill="none" xmlns="http://www.w3.org/2000/svg">
  <path fill-rule="evenodd" clip-rule="evenodd" d="M28.4016 57.2869C28.9037 58.7933 28.0896 60.4214 26.5833 60.9236C21.7072 62.5489 19.1156 66.6341 17.7287 70.7946C17.1776 72.4481 16.8447 74.0405 16.6449 75.3571C17.9615 75.1572 19.5539 74.8244 21.2074 74.2733C25.3679 72.8864 29.4531 70.2948 31.0784 65.4187C31.5805 63.9123 33.2087 63.0982 34.715 63.6004C36.2214 64.1025 37.0355 65.7306 36.5333 67.237C34.0928 74.5585 28.0133 78.0656 23.0257 79.7282C20.5061 80.5681 18.1463 80.9827 16.4238 81.1894C15.5584 81.2932 14.8428 81.3459 14.3344 81.3726C14.08 81.386 13.8766 81.393 13.7315 81.3966C13.6589 81.3984 13.6007 81.3993 13.558 81.3998L13.5054 81.4003L13.488 81.4004L13.4815 81.4004L13.4789 81.4004C13.4777 81.4004 13.4766 81.4004 13.4766 78.5254C10.6016 78.5254 10.6016 78.5243 10.6016 78.5231L10.6016 78.5204L10.6016 78.514L10.6017 78.4965L10.6021 78.444C10.6027 78.4012 10.6036 78.3431 10.6054 78.2705C10.609 78.1254 10.616 77.922 10.6294 77.6675C10.6561 77.1592 10.7088 76.4436 10.8126 75.5782C11.0193 73.8557 11.4339 71.4959 12.2738 68.9763C13.9364 63.9886 17.4435 57.9091 24.765 55.4686C26.2713 54.9665 27.8995 55.7806 28.4016 57.2869ZM13.4766 78.5254H10.6016C10.6016 80.1132 11.8887 81.4004 13.4766 81.4004V78.5254Z" fill="white"/>
  <path fill-rule="evenodd" clip-rule="evenodd" d="M76.1143 15.8897C72.8134 15.3991 64.588 15.2184 56.1664 23.64L33.8041 46.0023L46.0017 58.1998L68.364 35.8376C76.7856 27.416 76.6048 19.1905 76.1143 15.8897ZM76.9717 10.2039C72.3872 9.52002 62.1457 9.52902 52.1005 19.5741L27.7053 43.9693C27.1662 44.5085 26.8633 45.2398 26.8633 46.0023C26.8633 46.7648 27.1662 47.496 27.7053 48.0352L43.9688 64.2986C45.0916 65.4214 46.9119 65.4214 48.0347 64.2986L72.4298 39.9035C82.475 29.8583 82.484 19.6168 81.8 15.0323M76.9721 10.204C78.1879 10.3853 79.3133 10.9523 80.1824 11.8215C81.0516 12.6907 81.6187 13.8161 81.8 15.0319" fill="white"/>
  <path fill-rule="evenodd" clip-rule="evenodd" d="M66.3299 39.0586C67.9177 39.0586 69.2049 40.3458 69.2049 41.9336V65.1379C69.2049 65.893 69.0561 66.6407 68.7672 67.3383C68.4782 68.0359 68.0547 68.6698 67.5207 69.2038L55.8979 80.8266C55.162 81.5625 54.2401 82.0849 53.2306 82.3381C52.2211 82.5912 51.1619 82.5656 50.1658 82.264C49.1697 81.9624 48.2741 81.3961 47.5746 80.6255C46.8751 79.8549 46.3978 78.9089 46.1937 77.8884L43.1814 62.8268C42.87 61.2698 43.8797 59.7551 45.4367 59.4437C46.9937 59.1324 48.5083 60.1421 48.8197 61.6991L51.8321 76.7607L63.4549 65.1379V41.9336C63.4549 40.3458 64.7421 39.0586 66.3299 39.0586Z" fill="white"/>
  <path fill-rule="evenodd" clip-rule="evenodd" d="M24.6607 23.2346C25.3583 22.9456 26.106 22.7969 26.8611 22.7969H50.0654C51.6532 22.7969 52.9404 24.0841 52.9404 25.6719C52.9404 27.2597 51.6532 28.5469 50.0654 28.5469L26.8611 28.5469L15.2383 40.1697L30.2999 43.182C31.8569 43.4934 32.8667 45.008 32.5553 46.565C32.2439 48.122 30.7293 49.1318 29.1723 48.8204L14.1106 45.808C13.0901 45.6039 12.1441 45.1267 11.3735 44.4271C10.6029 43.7276 10.0366 42.832 9.735 41.836C9.43341 40.8399 9.40782 39.7806 9.66097 38.7711C9.91411 37.7616 10.4365 36.8397 11.1724 36.1038L22.7952 24.481L24.6633 26.3491L22.7952 24.481C23.3292 23.9471 23.9631 23.5235 24.6607 23.2346Z" fill="white"/>
</svg>
